<?xml version="1.0" encoding="UTF-8"?>
<svg width="81px" height="107px" viewBox="0 0 81 107" version="1.1" xmlns="http://www.w3.org/2000/svg" xmlns:xlink="http://www.w3.org/1999/xlink">
    <title>print(نقطه) (1)</title>
    <defs>
        <filter x="-19.0%" y="-13.5%" width="138.1%" height="127.0%" filterUnits="objectBoundingBox" id="filter-1">
            <feOffset dx="0" dy="2" in="SourceAlpha" result="shadowOffsetOuter1"></feOffset>
            <feGaussianBlur stdDeviation="2" in="shadowOffsetOuter1" result="shadowBlurOuter1"></feGaussianBlur>
            <feColorMatrix values="0 0 0 0 0   0 0 0 0 0   0 0 0 0 0  0 0 0 0.5 0" type="matrix" in="shadowBlurOuter1" result="shadowMatrixOuter1"></feColorMatrix>
            <feMerge>
                <feMergeNode in="shadowMatrixOuter1"></feMergeNode>
                <feMergeNode in="SourceGraphic"></feMergeNode>
            </feMerge>
        </filter>
        <polygon id="path-2" points="0 0 23 0 23 34 0 34"></polygon>
    </defs>
    <g id="Finalize-HifFi" stroke="none" stroke-width="1" fill="none" fill-rule="evenodd">
        <g id="home" transform="translate(-155.000000, -42.000000)">
            <g id="print(نقطه)-(1)" filter="url(#filter-1)" transform="translate(164.000000, 51.000000)">
                <g id="Clipped" transform="translate(0.000000, 55.000000)">
                    <mask id="mask-3" fill="white">
                        <use xlink:href="#path-2"></use>
                    </mask>
                    <g id="Path"></g>
                    <path d="M11.4604688,0 C12.3097917,3.816068 13.8071877,6.99135378 15.6208333,9.93432864 C16.964896,12.1176127 18.5233855,14.1324439 19.9656772,16.248567 C20.4472398,16.9554095 20.8629167,17.7018878 21.3253127,18.4351543 C22.2501043,19.9016872 23,21.602733 22.9520833,23.8080374 C22.9053645,25.9626955 22.2249478,27.6912666 21.2426565,29.1049511 C19.6278645,31.4291635 16.9229688,33.3360966 13.2932812,33.835951 C10.3248438,34.2455232 7.54328117,33.5540948 5.57031265,32.4982352 C3.95791667,31.6350507 2.70968765,30.482303 1.75973981,29.1236683 C0.769062653,27.7055795 0.08744784,26.0309574 0.02994784,23.8454712 C0.00119784,22.7257537 0.20125,21.6897122 0.482760493,20.8298308 C0.769062653,19.9589392 1.22786451,19.2311776 1.63635432,18.4549722 C2.43416667,16.9377935 3.43322932,15.5472296 4.43708333,14.1566658 C7.42588549,10.0136007 10.2314065,5.78906111 11.4604688,0 Z" id="Path" fill="#E94560" mask="url(#mask-3)"></path>
                </g>
                <path d="M8,78.000599 C8,77.7370076 8.02505616,77.4770107 8.07636093,77.2194099 C8.127666,76.9618091 8.20402692,76.7125954 8.30425064,76.4693726 C8.40447435,76.2261496 8.52736779,75.9961061 8.67412402,75.7780443 C8.81968689,75.5587841 8.98553335,75.3574961 9.1716631,75.1717839 C9.35659949,74.9860716 9.55943335,74.81953 9.77777795,74.6745545 C9.99612224,74.5283812 10.2263984,74.4049724 10.4686058,74.3043284 C10.7120059,74.2036844 10.9613723,74.1282014 11.2190904,74.0766811 C11.4768085,74.0251612 11.7369128,74 11.9994035,74 C12.2618941,74 12.5219987,74.0251612 12.7797168,74.0766811 C13.037435,74.1282014 13.2879941,74.2036844 13.5302015,74.3043284 C13.7736019,74.4049724 14.0038778,74.5283812 14.2222224,74.6745545 C14.440567,74.81953 14.6422074,74.9860716 14.8283372,75.1717839 C15.014467,75.3574961 15.1791201,75.5587841 15.3258763,75.7780443 C15.4714394,75.9961061 15.5943329,76.2261496 15.6957497,76.4693726 C15.7959734,76.7125954 15.8711412,76.9618091 15.922446,77.2194099 C15.9737511,77.4770107 16,77.7370076 16,78.000599 C16,78.2629924 15.9737511,78.5229893 15.922446,78.7805901 C15.8711412,79.0381909 15.7959734,79.2886027 15.6957497,79.5306274 C15.5943329,79.7738504 15.4714394,80.0038939 15.3258763,80.2231541 C15.1791201,80.4412159 15.014467,80.6437023 14.8283372,80.8294145 C14.6422074,81.0151264 14.440567,81.1804703 14.2222224,81.3266436 C14.0038778,81.4728171 13.7736019,81.5950276 13.5302015,81.6956716 C13.2879941,81.7963156 13.037435,81.8729967 12.7797168,81.9233189 C12.5219987,81.9748388 12.2618941,82 11.9994035,82 C11.7369128,82 11.4768085,81.9748388 11.2190904,81.9233189 C10.9613723,81.8729967 10.7120059,81.7963156 10.4686058,81.6956716 C10.2263984,81.5950276 9.99612224,81.4728171 9.77777795,81.3266436 C9.55943335,81.1804703 9.35659949,81.0151264 9.1716631,80.8294145 C8.98553335,80.6437023 8.81968689,80.4412159 8.67412402,80.2231541 C8.52736779,80.0038939 8.40447435,79.7738504 8.30425064,79.5306274 C8.20402692,79.2886027 8.127666,79.0381909 8.07636093,78.7805901 C8.02505616,78.5229893 8,78.2629924 8,78.000599 Z" id="Path" fill="#E94560" fill-rule="nonzero"></path>
                <g id="Group" fill="#E94560" fill-rule="nonzero">
                    <path d="M63,24.810765 C63,33.5249618 60.1398215,40.2568555 54.4206918,45.0042404 C48.7003352,49.7527281 40.5762503,52.1264205 30.047211,52.1264205 L23.4556715,52.1264205 L23.4556715,78 L0,78 L0,0 L30.047211,0 C41.0118417,0 49.2439038,2.1520891 54.7446245,6.45626731 C60.2477991,10.7604455 63,16.8793463 63,24.810765 Z M23.4556715,34.9449878 L27.7306014,34.9449878 C31.2545964,34.9449878 34.0546511,34.0563692 36.1332191,32.2769266 C38.2105601,30.4985866 39.2498442,28.0455135 39.2498442,24.9166054 C39.2498442,19.6510431 36.003155,17.018262 29.5122312,17.018262 L23.4556715,17.018262 L23.4556715,34.9449878 Z" id="Shape"></path>
                </g>
                <path d="M11,78.1473867 L11,73.033927 C11,72.9206892 11.0261169,72.8118923 11.0769759,72.7075359 C11.127835,72.6031797 11.1993126,72.5110352 11.2927834,72.4311027 C11.3862542,72.3511702 11.4948453,72.2901106 11.617182,72.2468137 C11.739519,72.2035172 11.867354,72.1813137 12.0006872,72.1813137 C12.132646,72.1813137 12.260481,72.2035172 12.3828176,72.2468137 C12.5051547,72.2901106 12.6137455,72.3511702 12.7072166,72.4311027 C12.800687,72.5110352 12.8735395,72.6031797 12.9243985,72.7075359 C12.9752576,72.8118923 13,72.9206892 13,73.033927 L13,78.1473867 C13,78.2606245 12.9752576,78.3694214 12.9243985,78.4737778 C12.8735395,78.578134 12.800687,78.6702785 12.7072166,78.750211 C12.6137455,78.8301435 12.5051547,78.8923132 12.3828176,78.9356101 C12.260481,78.9789066 12.132646,79 12.0006872,79 C11.867354,79 11.739519,78.9789066 11.617182,78.9356101 C11.4948453,78.8923132 11.3862542,78.8301435 11.2927834,78.750211 C11.1993126,78.6702785 11.127835,78.578134 11.0769759,78.4737778 C11.0261169,78.3694214 11,78.2606245 11,78.1473867 Z M11,69.6245837 L11,64.5111239 C11,64.3978863 11.0261169,64.2890891 11.0769759,64.1847329 C11.127835,64.0803768 11.1993126,63.9882323 11.2927834,63.9082998 C11.3862542,63.8283673 11.4948453,63.7673077 11.617182,63.7240108 C11.739519,63.6807143 11.867354,63.6585105 12.0006872,63.6585105 C12.132646,63.6585105 12.260481,63.6807143 12.3828176,63.7240108 C12.5051547,63.7673077 12.6137455,63.8283673 12.7072166,63.9082998 C12.800687,63.9882323 12.8735395,64.0803768 12.9243985,64.1847329 C12.9752576,64.2890891 13,64.3978863 13,64.5111239 L13,69.6245837 C13,69.7378216 12.9752576,69.8466185 12.9243985,69.9509749 C12.8735395,70.0553311 12.800687,70.1474756 12.7072166,70.2274081 C12.6137455,70.3073406 12.5051547,70.3695103 12.3828176,70.4128072 C12.260481,70.4561037 12.132646,70.4771971 12.0006872,70.4771971 C11.867354,70.4771971 11.739519,70.4561037 11.617182,70.4128072 C11.4948453,70.3695103 11.3862542,70.3073406 11.2927834,70.2274081 C11.1993126,70.1474756 11.127835,70.0553311 11.0769759,69.9509749 C11.0261169,69.8466185 11,69.7378216 11,69.6245837 Z M11,61.1017808 L11,55.988321 C11,55.8750834 11.0261169,55.7673966 11.0769759,55.66193 C11.127835,55.5575736 11.1993126,55.4654294 11.2927834,55.3854969 C11.3862542,55.3055644 11.4948453,55.2445048 11.617182,55.2012079 C11.739519,55.1579111 11.867354,55.136818 12.0006872,55.136818 C12.132646,55.136818 12.260481,55.1579111 12.3828176,55.2012079 C12.5051547,55.2445048 12.6137455,55.3055644 12.7072166,55.3854969 C12.800687,55.4654294 12.8735395,55.5575736 12.9243985,55.66193 C12.9752576,55.7673966 13,55.8750834 13,55.988321 L13,61.1017808 C13,61.2150184 12.9752576,61.3238156 12.9243985,61.4281717 C12.8735395,61.5325282 12.800687,61.6246724 12.7072166,61.7046049 C12.6137455,61.7845374 12.5051547,61.8467071 12.3828176,61.890004 C12.260481,61.9333008 12.132646,61.9543942 12.0006872,61.9543942 C11.867354,61.9543942 11.739519,61.9333008 11.617182,61.890004 C11.4948453,61.8467071 11.3862542,61.7845374 11.2927834,61.7046049 C11.1993126,61.6246724 11.127835,61.5325282 11.0769759,61.4281717 C11.0261169,61.3238156 11,61.2150184 11,61.1017808 Z M11,52.5789779 L11,47.465518 C11,47.3522802 11.0261169,47.2445934 11.0769759,47.1402372 C11.127835,47.0347707 11.1993126,46.9426262 11.2927834,46.8626937 C11.3862542,46.7827612 11.4948453,46.7217016 11.617182,46.678405 C11.739519,46.6351082 11.867354,46.6140148 12.0006872,46.6140148 C12.132646,46.6140148 12.260481,46.6351082 12.3828176,46.678405 C12.5051547,46.7217016 12.6137455,46.7827612 12.7072166,46.8626937 C12.800687,46.9426262 12.8735395,47.0347707 12.9243985,47.1402372 C12.9752576,47.2445934 13,47.3522802 13,47.465518 L13,52.5789779 C13,52.6922155 12.9752576,52.8010127 12.9243985,52.9053688 C12.8735395,53.009725 12.800687,53.1018695 12.7072166,53.181802 C12.6137455,53.2617345 12.5051547,53.3239042 12.3828176,53.3672011 C12.260481,53.4104979 12.132646,53.4315913 12.0006872,53.4315913 C11.867354,53.4315913 11.739519,53.4104979 11.617182,53.3672011 C11.4948453,53.3239042 11.3862542,53.2617345 11.2927834,53.181802 C11.1993126,53.1018695 11.127835,53.009725 11.0769759,52.9053688 C11.0261169,52.8010127 11,52.6922155 11,52.5789779 Z M11,44.0572849 L11,38.9427151 C11,38.8305877 11.0261169,38.7217905 11.0769759,38.6174343 C11.127835,38.5130779 11.1993126,38.4198233 11.2927834,38.3398908 C11.3862542,38.2610684 11.4948453,38.1988987 11.617182,38.1556021 C11.739519,38.1123053 11.867354,38.0912119 12.0006872,38.0912119 C12.132646,38.0912119 12.260481,38.1123053 12.3828176,38.1556021 C12.5051547,38.1988987 12.6137455,38.2610684 12.7072166,38.3398908 C12.800687,38.4198233 12.8735395,38.5130779 12.9243985,38.6174343 C12.9752576,38.7217905 13,38.8305877 13,38.9427151 L13,44.0572849 C13,44.1694126 12.9752576,44.2782095 12.9243985,44.3825659 C12.8735395,44.4869221 12.800687,44.5790666 12.7072166,44.6589991 C12.6137455,44.7389316 12.5051547,44.8011013 12.3828176,44.8443982 C12.260481,44.887695 12.132646,44.9087881 12.0006872,44.9087881 C11.867354,44.9087881 11.739519,44.887695 11.617182,44.8443982 C11.4948453,44.8011013 11.3862542,44.7389316 11.2927834,44.6589991 C11.1993126,44.5790666 11.127835,44.4869221 11.0769759,44.3825659 C11.0261169,44.2782095 11,44.1694126 11,44.0572849 Z M11,35.534482 L11,30.4199122 C11,30.3077845 11.0261169,30.1989876 11.0769759,30.0946312 C11.127835,29.990275 11.1993126,29.8981305 11.2927834,29.818198 C11.3862542,29.7382655 11.4948453,29.6760958 11.617182,29.6327989 C11.739519,29.5895021 11.867354,29.568409 12.0006872,29.568409 C12.132646,29.568409 12.260481,29.5895021 12.3828176,29.6327989 C12.5051547,29.6760958 12.6137455,29.7382655 12.7072166,29.818198 C12.800687,29.8981305 12.8735395,29.990275 12.9243985,30.0946312 C12.9752576,30.1989876 13,30.3077845 13,30.4199122 L13,35.534482 C13,35.6466094 12.9752576,35.7554066 12.9243985,35.8597628 C12.8735395,35.9641192 12.800687,36.0562637 12.7072166,36.1361962 C12.6137455,36.2161287 12.5051547,36.2782984 12.3828176,36.321595 C12.260481,36.3648918 12.132646,36.3859852 12.0006872,36.3859852 C11.867354,36.3859852 11.739519,36.3648918 11.617182,36.321595 C11.4948453,36.2782984 11.3862542,36.2161287 11.2927834,36.1361962 C11.1993126,36.0562637 11.127835,35.9641192 11.0769759,35.8597628 C11.0261169,35.7554066 11,35.6466094 11,35.534482 Z M11,27.011679 L11,21.8971091 C11,21.7849816 11.0261169,21.6761844 11.0769759,21.5718283 C11.127835,21.4674721 11.1993126,21.3753276 11.2927834,21.2953951 C11.3862542,21.2154626 11.4948453,21.1532929 11.617182,21.109996 C11.739519,21.0666992 11.867354,21.0456058 12.0006872,21.0456058 C12.132646,21.0456058 12.260481,21.0666992 12.3828176,21.109996 C12.5051547,21.1532929 12.6137455,21.2154626 12.7072166,21.2953951 C12.800687,21.3753276 12.8735395,21.4674721 12.9243985,21.5718283 C12.9752576,21.6761844 13,21.7849816 13,21.8971091 L13,27.011679 C13,27.1238065 12.9752576,27.2326037 12.9243985,27.3369599 C12.8735395,27.4413163 12.800687,27.5334608 12.7072166,27.6133933 C12.6137455,27.6933258 12.5051547,27.7554955 12.3828176,27.7987921 C12.260481,27.8420889 12.132646,27.8631823 12.0006872,27.8631823 C11.867354,27.8631823 11.739519,27.8420889 11.617182,27.7987921 C11.4948453,27.7554955 11.3862542,27.6933258 11.2927834,27.6133933 C11.1993126,27.5334608 11.127835,27.4413163 11.0769759,27.3369599 C11.0261169,27.2326037 11,27.1238065 11,27.011679 Z M11,18.4888761 L11,13.3743062 C11,13.2621787 11.0261169,13.1533815 11.0769759,13.0490253 C11.127835,12.9446689 11.1993126,12.8525247 11.2927834,12.7725922 C11.3862542,12.6926597 11.4948453,12.63049 11.617182,12.5871931 C11.739519,12.5438963 11.867354,12.5228029 12.0006872,12.5228029 C12.132646,12.5228029 12.260481,12.5438963 12.3828176,12.5871931 C12.5051547,12.63049 12.6137455,12.6926597 12.7072166,12.7725922 C12.800687,12.8525247 12.8735395,12.9446689 12.9243985,13.0490253 C12.9752576,13.1533815 13,13.2621787 13,13.3743062 L13,18.4888761 C13,18.6010036 12.9752576,18.7098005 12.9243985,18.8141569 C12.8735395,18.9196235 12.800687,19.0117677 12.7072166,19.0917002 C12.6137455,19.1705226 12.5051547,19.2326923 12.3828176,19.2759892 C12.260481,19.319286 12.132646,19.3403791 12.0006872,19.3403791 C11.867354,19.3403791 11.739519,19.319286 11.617182,19.2759892 C11.4948453,19.2326923 11.3862542,19.1705226 11.2927834,19.0917002 C11.1993126,19.0117677 11.127835,18.9196235 11.0769759,18.8141569 C11.0261169,18.7098005 11,18.6010036 11,18.4888761 Z M11,9.96607324 L11,4.85261335 C11,4.7393755 11.0261169,4.63057862 11.0769759,4.52622216 C11.127835,4.42186598 11.1993126,4.3297215 11.2927834,4.249789 C11.3862542,4.16985649 11.4948453,4.10768677 11.617182,4.06438993 C11.739519,4.02109337 11.867354,4 12.0006872,4 C12.132646,4 12.260481,4.02109337 12.3828176,4.06438993 C12.5051547,4.10768677 12.6137455,4.16985649 12.7072166,4.249789 C12.800687,4.3297215 12.8735395,4.42186598 12.9243985,4.52622216 C12.9752576,4.63057862 13,4.7393755 13,4.85261335 L13,9.96607324 C13,10.0793108 12.9752576,10.1869976 12.9243985,10.291354 C12.8735395,10.3968203 12.800687,10.4889648 12.7072166,10.5688973 C12.6137455,10.6488298 12.5051547,10.7098894 12.3828176,10.7531863 C12.260481,10.7964828 12.132646,10.8175762 12.0006872,10.8175762 C11.867354,10.8175762 11.739519,10.7964828 11.617182,10.7531863 C11.4948453,10.7098894 11.3862542,10.6488298 11.2927834,10.5688973 C11.1993126,10.4889648 11.127835,10.3968203 11.0769759,10.291354 C11.0261169,10.1869976 11,10.0793108 11,9.96607324 Z" id="Shape" fill="#EDE5D5" fill-rule="nonzero"></path>
                <g id="Group" transform="translate(28.000000, 4.000000)" fill="#00192E" fill-rule="nonzero">
                    <path d="M6,2.54923547 C5.99621204,3.44342515 5.72222222,4.13333341 5.17676768,4.61896024 C4.63131313,5.10581024 3.85858586,5.34678907 2.85858586,5.34311927 L2.23232323,5.34311927 L2.23232323,8 L0,8 L0.00505050505,0 L2.86363636,0 C3.90656549,0.00366980306 4.6893941,0.225076453 5.21212121,0.665443425 C5.73737374,1.1058104 6,1.73455673 6,2.54923547 Z M2.23232323,3.58165138 L2.63636364,3.58165138 C2.97222238,3.58165138 3.23989883,3.49113134 3.43939394,3.30764526 C3.63762618,3.12538234 3.73737374,2.87461758 3.73737374,2.55412844 C3.73737374,2.0134555 3.42929293,1.74189602 2.81313131,1.74189602 L2.23737374,1.74189602 L2.23232323,3.58165138 Z" id="Shape"></path>
                </g>
                <g id="Group" transform="translate(33.000000, 6.000000)" fill="#00192E" fill-rule="nonzero">
                    <path d="M3.85666234,6.50758502 L3.75281028,5.62218501 L3.70607685,5.60798074 C3.28677406,5.84116756 2.90381949,5.96782245 2.55851154,5.98676149 C2.21190519,6.00570053 1.80168954,5.93586275 1.32786458,5.77843207 C0.746293021,5.58193941 0.351655178,5.27181282 0.14395105,4.84568447 C-0.0611566109,4.4171886 -0.0468772014,3.91293687 0.185491875,3.33529622 C0.42694809,2.73279817 0.835865344,2.35993579 1.41094623,2.21789301 C1.98862326,2.07585022 2.71948224,2.13266734 3.60222478,2.38834434 L4.64074543,2.70083846 L4.67190104,2.62508231 C4.85883476,2.16107589 4.7004602,1.84621454 4.19937415,1.67813043 C3.74502121,1.52661813 3.11671655,1.47453578 2.31445919,1.52188337 L2.21060713,0.0304341623 C3.06868472,-0.0666282539 4.04619219,0.0683122375 5.14442794,0.437623471 C5.93370362,0.700402769 6.47373436,1.08391798 6.76452014,1.58817001 C7.05790205,2.0900545 7.0773744,2.66296039 6.82163877,3.30688767 L5.33655425,7 L3.85666234,6.50758502 Z M2.78179348,4.70364169 C3.04142364,4.79241851 3.29196666,4.79360212 3.53472094,4.70837645 C3.78007136,4.62078355 3.95142727,4.45625059 4.04878866,4.21596147 L4.22533717,3.77562885 L3.72684726,3.62885131 C3.01286449,3.42052189 2.56889675,3.54125841 2.39234824,3.98869302 C2.24955148,4.33314684 2.3793669,4.57106843 2.78179348,4.70364169 Z" id="Shape"></path>
                </g>
                <g id="Group" transform="translate(39.000000, 9.000000)" fill="#00192E" fill-rule="nonzero">
                    <path d="M6.5486904,2.11959087 C6.68972465,2.2269867 6.81430505,2.34146341 6.92478173,2.46420142 L7,2.55389457 L5.67897918,3.97954367 C5.5685022,3.84500378 5.39456026,3.68568064 5.15715245,3.50275374 C4.8022164,3.22895358 4.48136326,3.11329677 4.1934184,3.1534225 C3.90782397,3.19118804 3.64808596,3.36349316 3.41302888,3.66797797 L1.62659503,6 L0,4.73957514 L3.63398254,0 L4.8468771,0.939417781 L4.51779718,1.88827695 L4.59771659,1.94964595 C4.92679651,1.80566468 5.27233057,1.75019677 5.63666891,1.78442172 C5.99983203,1.81628646 6.30423103,1.92840268 6.5486904,2.11959087 Z" id="Path"></path>
                </g>
                <g id="Group" transform="translate(42.000000, 12.000000)" fill="#00192E" fill-rule="nonzero">
                    <path d="M4.14460512,3.97813688 C4.63765311,3.96102662 5.03559511,3.96209594 5.33592881,3.98241445 L7.61846496,4.11929658 L9,5.84315589 L5.53114572,5.59505703 L3.84427141,9 L2.42769744,7.23764259 L3.52391546,5.16302281 L2.67797553,4.92347909 L1.24638487,5.75760456 L0,4.20484791 L7.19299221,0 L8.43937709,1.55275665 L5.61123471,3.2081749 C5.12319228,3.4904943 4.62639035,3.73538491 4.11957731,3.94391635 L4.14460512,3.97813688 Z" id="Path"></path>
                </g>
                <g id="Group" transform="translate(46.000000, 20.000000)" fill="#00192E" fill-rule="nonzero">
                    <path d="M0.278795038,8 L0.174837566,5.13226205 L5.50502067,1.96786156 L5.50502067,1.9184178 C4.65091546,2.01977766 3.99881859,2.0815822 3.54873006,2.1013597 L0.0708800945,2.23980222 L0,0.306551298 L7.72120496,0 L7.82516243,2.84796044 L2.56585942,6.00247219 L2.57058476,6.03708282 C3.34199638,5.95426444 3.96455995,5.90358467 4.43709392,5.88380717 L7.92911991,5.74536465 L8,7.6934487 L0.278795038,8 Z" id="Path"></path>
                </g>
                <g id="Group" transform="translate(50.000000, 29.000000)" fill="#00192E" fill-rule="nonzero">
                    <path d="M2.55571848,2.95426829 L2.43695015,3 C1.35483871,2.36547249 0.542155355,1.82240839 0,1.37195122 L0.356304985,0 C1.30315242,0.50533522 2.18401774,0.928353659 3,1.26676829 L2.55571848,2.95426829 Z" id="Path"></path>
                </g>
                <g id="Group" transform="translate(43.000000, 32.000000)" fill="#00192E" fill-rule="nonzero">
                    <path d="M0.994133684,5.21273032 C0.589876487,4.94137346 0.306274459,4.60971524 0.143327601,4.21663875 C-0.0183751505,3.82356226 -0.0432528398,3.39475154 0.0686954882,2.93020659 C0.181887605,2.46566164 0.43439268,1.99888316 0.824967562,1.53210497 C1.14712959,1.14126172 1.44938941,0.833054303 1.73050386,0.607481854 C2.00913041,0.384142937 2.34497476,0.180904666 2.73554964,0 L4.30282401,1.04969291 C3.87742081,1.23394744 3.48187077,1.45728636 3.11368568,1.71970966 C2.74798849,1.98101605 2.45443519,2.24790613 2.22805128,2.51926298 C2.032764,2.75711886 1.93698588,2.96147404 1.93947378,3.13121161 C1.93947378,3.30094919 2.01161831,3.43271929 2.15341917,3.52875489 C2.2429777,3.58793963 2.33999961,3.61809045 2.44199667,3.61809045 C2.54523784,3.61809045 2.66962469,3.59240641 2.81515723,3.54215522 C2.96442145,3.49078713 3.3201677,3.32439971 3.88488418,3.04187605 C4.39238254,2.79173646 4.81654163,2.63204906 5.15860556,2.56393076 C5.49942538,2.49469584 5.8253191,2.49246231 6.1337985,2.55499721 C6.44476548,2.61976564 6.76195203,2.76046901 7.08411407,2.97487437 C7.68365886,3.37688442 7.98965037,3.88609715 7.99960131,4.50251256 C8.01204016,5.12116151 7.73341361,5.77331114 7.16372165,6.45896147 C6.65871118,7.06309317 5.99075354,7.57677268 5.15860556,8 L4.19336357,6.60636516 C4.92973375,6.24232258 5.46210949,5.86264671 5.79049078,5.46733668 C5.9596569,5.26186488 6.04175239,5.08431037 6.03926449,4.93579006 C6.03926449,4.789503 5.9795588,4.67671692 5.86014742,4.59631491 C5.73327299,4.50921259 5.57156992,4.49134547 5.37255095,4.54271357 C5.17353199,4.59631491 4.72076384,4.79731993 4.0142465,5.14572864 C3.34380128,5.48185364 2.78281649,5.6504746 2.33253624,5.6504746 C1.8785243,5.65270784 1.43197541,5.50753769 0.994133684,5.21273032 Z" id="Path"></path>
                </g>
                <g id="Group" transform="translate(38.000000, 37.000000)" fill="#00192E" fill-rule="nonzero">
                    <path d="M1.68913043,2.08317147 C1.45326103,2.23534569 1.21105081,2.47242829 0.963768116,2.79331718 L0,1.66414139 C0.162318841,1.41933946 0.337319003,1.207619 0.522463768,1.02898 C0.705072464,0.849238084 0.942210226,0.665085603 1.2326087,0.477624636 C1.83115942,0.0894704576 2.37137665,-0.0627037651 2.85072464,0.0233078134 C3.33134066,0.108216469 3.79673929,0.412564633 4.24565217,0.936352302 L5.83333333,2.7844955 L6.46231884,2.37869794 L7,3.00944849 L6.61956522,4.01070983 L6.96956522,5.24574586 L5.80797101,6 L5.04202899,5.10459888 L3.77391304,5.92501567 L2.77971014,4.76496398 L4.04782609,3.94454719 L2.55144928,2.19785338 C2.30163052,1.90894331 2.01376812,1.87145101 1.68913043,2.08317147 Z" id="Path"></path>
                </g>
                <g id="Group" transform="translate(33.000000, 39.000000)" fill="#00192E" fill-rule="nonzero">
                    <path d="M1.4289793,0.931199929 L2.1034975,1.48466869 L2.14346895,1.47189634 C2.30085637,1.0940474 2.50196296,0.808798115 2.74803712,0.616148478 C2.99161321,0.422434547 3.34136339,0.256393645 3.79728765,0.11802659 C4.35688794,-0.0501429014 4.8590291,-0.0384348402 5.30121342,0.152086207 C5.74464676,0.341542686 6.07316219,0.698104362 6.29050678,1.22070667 C6.51284813,1.76566053 6.45788706,2.23504455 6.12562455,2.62992329 C5.79336204,3.02693063 5.21377603,3.36859136 4.38686652,3.65596923 L3.40256959,3.97953559 L3.43254818,4.04765482 C3.60617424,4.46701398 3.93468967,4.60538104 4.41684511,4.46062767 C4.85403299,4.32971095 5.35492513,4.03913991 5.92077088,3.58785 L7,4.56706397 C6.42665945,5.08008707 5.60974312,5.49731737 4.54675232,5.81875487 C3.78479673,6.04546412 3.12651685,6.05930104 2.57316203,5.86132939 C2.01730914,5.66229344 1.61884368,5.27380101 1.37901499,4.69478753 L0,1.35694513 L1.4289793,0.931199929 Z M3.43254818,1.62090716 C3.18272662,1.69434814 2.99785867,1.82526486 2.87794433,2.01259275 C2.75553192,2.2020495 2.73679523,2.40534263 2.82298358,2.62140839 L2.98786581,3.01735143 L3.45753034,2.85556825 C4.12705211,2.63418074 4.37937172,2.32019359 4.21199143,1.91467135 C4.08208423,1.60174849 3.82226981,1.50382736 3.43254818,1.62090716 Z" id="Shape"></path>
                </g>
                <g id="Group" transform="translate(27.000000, 37.000000)" fill="#00192E" fill-rule="nonzero">
                    <path d="M7,8 L4.69335239,7.98680598 L3.64260186,4.78505606 C3.59006449,4.61793175 3.55503915,4.41672281 3.5375268,4.18252895 L3.49249464,4.18252895 C3.45997157,4.4079268 3.41493908,4.60583716 3.35739814,4.77626005 L2.231594,7.97800996 L0,7.96481594 L2.54181558,2.04949501 C2.86954984,1.29963477 3.26733381,0.769674647 3.73766976,0.461814079 C4.20800572,0.151754365 4.82094369,-0.00217563732 5.57398142,0 C5.86418871,0.00332180247 6.16315233,0.0330084277 6.46962116,0.0879833884 L6.45961401,1.59650017 C6.26322381,1.55911696 6.03806298,1.53932607 5.78413152,1.53932607 C5.58774132,1.53712721 5.41761981,1.56791298 5.27376698,1.63168424 C5.12741252,1.69655493 4.99857041,1.7889131 4.88849178,1.90875875 C4.77841315,2.02640554 4.66208014,2.22101733 4.5382416,2.49369383 L7,8 Z" id="Path"></path>
                </g>
            </g>
        </g>
    </g>
</svg>